<svg width="764" height="977" viewBox="0 0 764 977" fill="none" xmlns="http://www.w3.org/2000/svg">
<path d="M8.13287e-05 49.5177L0.000105054 976.999C0.000105054 976.999 63.8917 976.994 391 976.994C718.108 976.995 764 976.999 764 976.999L764 73.8845C764 73.8845 699.002 -7.29397 373.502 117.968C48.0019 243.23 8.13287e-05 49.5177 8.13287e-05 49.5177Z" fill="url(#paint0_linear_971_209)"/>
<path d="M0.000105054 11.0694L0 976.999C0 976.999 63.8916 976.994 391 976.995C718.108 976.995 764 976.999 764 976.999L764 0.512814C764 0.512814 671 -17.0816 373.502 153.761C76.0037 324.604 0.000105054 11.0694 0.000105054 11.0694Z" fill="url(#paint1_linear_971_209)"/>
<defs>
<linearGradient id="paint0_linear_971_209" x1="-283.813" y1="-35.9981" x2="-394.454" y2="773.978" gradientUnits="userSpaceOnUse">
<stop stop-color="#9399F0"/>
<stop offset="0.837464" stop-color="#302024" stop-opacity="0"/>
</linearGradient>
<linearGradient id="paint1_linear_971_209" x1="210.499" y1="-130.272" x2="135.345" y2="647.578" gradientUnits="userSpaceOnUse">
<stop stop-color="#9399F0"/>
<stop offset="0.837464" stop-color="#302024" stop-opacity="0"/>
</linearGradient>
</defs>
</svg>
