<svg width="1917" height="3328" viewBox="0 0 1917 3328" fill="none" xmlns="http://www.w3.org/2000/svg">
<path d="M0.0266576 3064.59L0.0248497 20.1723C0.0248497 20.1723 220.075 -84.6057 971.207 183.431C1722.34 451.467 1917 109.077 1917 109.077L1917 3064.59C1917 3064.59 1671.56 3443.9 907.731 3149.25C143.904 2854.59 0.0266576 3064.59 0.0266576 3064.59Z" fill="url(#paint0_linear_1343_211)"/>
<path d="M0.0247205 3249.3V244.011C0.0247205 244.011 186.221 -16.6804 992.366 272.466C1798.51 561.613 1917 1.67818 1917 1.67818L1917 3163.95C1917 3163.95 1712.82 3370.47 917.253 3085.91C121.687 2801.35 0.0247205 3249.3 0.0247205 3249.3Z" fill="url(#paint1_linear_1343_211)" fill-opacity="0.5"/>
<path d="M0.0248497 3287.86L5.43499e-05 102.771C5.43499e-05 102.771 204.181 -19.4327 951.082 294.061C1697.98 607.554 1916.97 294.061 1916.97 294.061L1916.97 3249.3C1916.97 3249.3 1681.08 3455.84 935.238 3199.73C189.395 2943.63 0.0248497 3287.86 0.0248497 3287.86Z" fill="url(#paint2_linear_1343_211)"/>
<defs>
<linearGradient id="paint0_linear_1343_211" x1="958.499" y1="-79.0621" x2="958.499" y2="1753.14" gradientUnits="userSpaceOnUse">
<stop stop-color="#9399F0"/>
<stop offset="1" stop-color="#563457"/>
</linearGradient>
<linearGradient id="paint1_linear_1343_211" x1="1548.69" y1="217.089" x2="138.064" y2="851.158" gradientUnits="userSpaceOnUse">
<stop offset="0.384615" stop-color="#2C192C"/>
<stop offset="1" stop-color="#9399F0" stop-opacity="0.7"/>
</linearGradient>
<linearGradient id="paint2_linear_1343_211" x1="738.633" y1="1290.44" x2="91.5558" y2="687.113" gradientUnits="userSpaceOnUse">
<stop offset="0.0384615" stop-color="#9399F0" stop-opacity="0.3"/>
<stop offset="1" stop-color="#563457" stop-opacity="0.3"/>
</linearGradient>
</defs>
</svg>
