<svg width="1919" height="2783" viewBox="0 0 1919 2783" fill="none" xmlns="http://www.w3.org/2000/svg">
<path d="M1918.02 2439.08L1917.97 135.995C1917.97 135.995 1709.48 -122.062 975.001 84.2814C240.521 290.625 0.0195681 84.2811 0.0195681 84.2811L0.0195362 2397.22C0.0195362 2397.22 211.474 2258.59 992.953 2439.08C1774.43 2619.57 1918.02 2439.08 1918.02 2439.08Z" fill="url(#paint0_linear_1031_317)" fill-opacity="0.5"/>
<path d="M1918.05 2439.15L1918.05 19.7784C1918.05 19.7784 1580.55 -67.4004 985.55 124.301C390.548 316.002 0.0509072 5.17107 0.0509072 5.17107L0.0508022 2486.3C0.0508022 2486.3 263.004 2829 1050.5 2589C1838 2349 1918.05 2439.15 1918.05 2439.15Z" fill="url(#paint1_linear_1031_317)" fill-opacity="0.5"/>
<path d="M0.00239037 82.9912L0.00433009 2555.51C0.00433009 2555.51 177.504 2853.02 951.504 2661.51C1725.5 2470 1918 2762.5 1918 2762.5L1918 159.909C1918 159.909 1713.71 -26.1975 917.722 230.23C121.73 486.657 0.00239037 82.9912 0.00239037 82.9912Z" fill="url(#paint2_linear_1031_317)" fill-opacity="0.5"/>
<path d="M0.00242572 164.994L0.00435311 2640.99C0.00435311 2640.99 178.004 2920.5 1021.5 2692.5C1865 2464.5 1918 2640.99 1918 2640.99L1918 241.912C1918 241.912 1713.71 55.8062 917.722 312.233C121.73 568.659 0.00242572 164.994 0.00242572 164.994Z" fill="url(#paint3_linear_1031_317)" fill-opacity="0.5"/>
<defs>
<linearGradient id="paint0_linear_1031_317" x1="-1401.93" y1="-136.315" x2="184.013" y2="2867.15" gradientUnits="userSpaceOnUse">
<stop stop-color="#9399F0"/>
<stop offset="1" stop-opacity="0"/>
</linearGradient>
<linearGradient id="paint1_linear_1031_317" x1="-266.994" y1="70.4928" x2="615.714" y2="1920.49" gradientUnits="userSpaceOnUse">
<stop stop-color="#9399F0" stop-opacity="0.8"/>
<stop offset="1" stop-color="#2C192C" stop-opacity="0.9"/>
</linearGradient>
<linearGradient id="paint2_linear_1031_317" x1="1337.51" y1="2516.7" x2="1623.8" y2="592.848" gradientUnits="userSpaceOnUse">
<stop stop-color="#9399F0"/>
<stop offset="1" stop-color="#2C192C" stop-opacity="0"/>
</linearGradient>
<linearGradient id="paint3_linear_1031_317" x1="1337.51" y1="2598.72" x2="1623.8" y2="674.865" gradientUnits="userSpaceOnUse">
<stop stop-color="#9399F0"/>
<stop offset="1" stop-color="#2C192C" stop-opacity="0"/>
</linearGradient>
</defs>
</svg>
