<svg width="380" height="1578" viewBox="0 0 380 1578" fill="none" xmlns="http://www.w3.org/2000/svg">
<path d="M380 1503.26V77.8879C380 77.8879 371.707 -21.8813 201.667 58.6742C31.6266 139.23 0 50.3638 0 50.3638L0.00099047 1513.81C0.00099047 1513.81 43.9991 1623.9 197.499 1526.69C350.999 1429.48 380 1503.26 380 1503.26Z" fill="url(#paint0_linear_2488_148)"/>
<path d="M380 1547.77V33.9161C380 33.9161 342.676 -15.231 195.292 79.2076C47.9087 173.646 0 35.136 0 35.136L0.00097555 1489.21C0.00097555 1489.21 26.0107 1653.18 203.006 1535.47C380.001 1417.76 380 1547.77 380 1547.77Z" fill="url(#paint1_linear_2488_148)" fill-opacity="0.5"/>
<path d="M379.998 1533.13V1.96894C379.998 1.96894 318.463 -20.4992 197.5 86.3618C76.5368 193.222 0 66.174 0 66.174L9.84967e-06 1468.71C9.84967e-06 1468.71 35.4986 1609.26 186.505 1507.36C337.512 1405.47 379.998 1533.13 379.998 1533.13Z" fill="url(#paint2_linear_2488_148)"/>
<defs>
<linearGradient id="paint0_linear_2488_148" x1="257.128" y1="1500.27" x2="67.6771" y2="196.48" gradientUnits="userSpaceOnUse">
<stop stop-color="#563457"/>
<stop offset="1" stop-color="#9399F0"/>
</linearGradient>
<linearGradient id="paint1_linear_2488_148" x1="292.827" y1="131.114" x2="-182.995" y2="274.873" gradientUnits="userSpaceOnUse">
<stop offset="0.384615" stop-color="#2C192C"/>
<stop offset="1" stop-color="#9399F0" stop-opacity="0.4"/>
</linearGradient>
<linearGradient id="paint2_linear_2488_148" x1="35.9677" y1="476.084" x2="238.926" y2="495.191" gradientUnits="userSpaceOnUse">
<stop offset="0.0384616" stop-color="#9399F0" stop-opacity="0.6"/>
<stop offset="1" stop-color="#563457" stop-opacity="0.4"/>
</linearGradient>
</defs>
</svg>
