<svg width="380" height="1288" viewBox="0 0 380 1288" fill="none" xmlns="http://www.w3.org/2000/svg">
<path d="M380 1227V63.5727C380 63.5727 371.707 -17.8611 201.667 47.8901C31.6266 113.642 0 41.107 0 41.107L0.00099047 1235.6C0.00099047 1235.6 43.9991 1325.46 197.499 1246.12C350.999 1166.77 380 1227 380 1227Z" fill="url(#paint0_linear_1838_129)"/>
<path d="M380 1263.33V27.684C380 27.684 342.676 -12.4309 195.292 64.6519C47.9087 141.735 0 28.6797 0 28.6797L0.00097555 1215.53C0.00097555 1215.53 26.0107 1349.36 203.006 1253.29C380.001 1157.21 380 1263.33 380 1263.33Z" fill="url(#paint1_linear_1838_129)" fill-opacity="0.5"/>
<path d="M379.998 1251.38V1.6071C379.998 1.6071 318.463 -16.7319 197.5 70.4905C76.5368 157.712 0 54.0127 0 54.0127L9.84967e-06 1198.8C9.84967e-06 1198.8 35.4986 1313.51 186.505 1230.34C337.512 1147.17 379.998 1251.38 379.998 1251.38Z" fill="url(#paint2_linear_1838_129)"/>
<defs>
<linearGradient id="paint0_linear_1838_129" x1="257.128" y1="1224.55" x2="130.035" y2="152.974" gradientUnits="userSpaceOnUse">
<stop stop-color="#563457"/>
<stop offset="1" stop-color="#9399F0"/>
</linearGradient>
<linearGradient id="paint1_linear_1838_129" x1="292.827" y1="107.019" x2="-163.857" y2="276.063" gradientUnits="userSpaceOnUse">
<stop offset="0.384615" stop-color="#2C192C"/>
<stop offset="1" stop-color="#9399F0" stop-opacity="0.4"/>
</linearGradient>
<linearGradient id="paint2_linear_1838_129" x1="35.9677" y1="388.591" x2="238.037" y2="411.897" gradientUnits="userSpaceOnUse">
<stop offset="0.0384616" stop-color="#9399F0" stop-opacity="0.6"/>
<stop offset="1" stop-color="#563457" stop-opacity="0.4"/>
</linearGradient>
</defs>
</svg>
