<svg width="390" height="1516" viewBox="0 0 390 1516" fill="none" xmlns="http://www.w3.org/2000/svg">
<path d="M390.008 1493.39L390.008 19.9643C390.008 19.9643 353.008 -5.0273 205.318 27.0462C57.6279 59.1196 0.0083029 22.5526 0.0083029 22.5526L0.00050488 1473.41C0.00050488 1473.41 22.0156 1467.33 188.008 1502C354 1536.66 390.008 1493.39 390.008 1493.39Z" fill="url(#paint0_linear_1260_109)"/>
<path d="M390.008 1483.02L390.008 0.731469C390.008 0.731469 357.508 -8.31605 194.508 37.2284C31.5078 82.7729 0.0111695 0.73144 0.0111695 0.73144L0.00715643 1483.02C0.00715643 1483.02 21.0077 1471.38 187 1502.76C352.992 1534.13 390.008 1483.02 390.008 1483.02Z" fill="url(#paint1_linear_1260_109)" fill-opacity="0.5"/>
<path d="M390.008 1506.27L390.008 34.6397C390.008 34.6397 346.008 -8.31567 202.508 31.9153C59.0078 72.1463 0.0108385 37.2284 0.0108385 37.2284L0.0108442 1493.26C0.0108442 1493.26 53.5078 1478.72 192.008 1498.96C330.508 1519.2 390.008 1506.27 390.008 1506.27Z" fill="url(#paint2_linear_1260_109)"/>
<defs>
<linearGradient id="paint0_linear_1260_109" x1="195.005" y1="-71.6149" x2="195.005" y2="754.522" gradientUnits="userSpaceOnUse">
<stop stop-color="#9399F0"/>
<stop offset="1" stop-color="#563457"/>
</linearGradient>
<linearGradient id="paint1_linear_1260_109" x1="315.079" y1="62.5245" x2="-16.1447" y2="129.986" gradientUnits="userSpaceOnUse">
<stop offset="0.384615" stop-color="#2C192C"/>
<stop offset="1" stop-color="#9399F0" stop-opacity="0.7"/>
</linearGradient>
<linearGradient id="paint2_linear_1260_109" x1="239.731" y1="557.531" x2="450.071" y2="470.816" gradientUnits="userSpaceOnUse">
<stop offset="0.0384615" stop-color="#9399F0" stop-opacity="0.3"/>
<stop offset="1" stop-color="#563457" stop-opacity="0.3"/>
</linearGradient>
</defs>
</svg>
