<svg width="381" height="3947" viewBox="0 0 381 3947" fill="none" xmlns="http://www.w3.org/2000/svg">
<path d="M380.84 3947L380.834 91.72C380.834 91.72 363.462 -5.72942 198.343 57.1186C33.2232 119.966 0.839844 45.0177 0.839844 45.0177L0.848621 3947C0.848621 3947 181.509 3947 187.999 3947C194.488 3947 380.84 3947 380.84 3947Z" fill="url(#paint0_linear_1436_214)"/>
<path d="M380.84 3947L380.838 61.4048C380.838 61.4048 345.946 -13.6486 195.291 75.4032C44.6356 164.455 0.839844 0 0.839844 0V3947C0.839844 3947 181.505 3947 187.994 3947C194.484 3947 338.44 3947 380.84 3947Z" fill="url(#paint1_linear_1436_214)" fill-opacity="0.5"/>
<path d="M380.84 3946.61V28.5455C380.84 28.5455 310.417 -3.58739 198.343 86.8447C86.2684 177.276 0.839844 24.6324 0.839844 24.6324L0.848672 3946.61C0.848672 3946.61 34.3848 3945.73 187.999 3946.61C341.613 3947.49 360.96 3946.61 380.84 3946.61Z" fill="url(#paint2_linear_1436_214)"/>
<defs>
<linearGradient id="paint0_linear_1436_214" x1="190.84" y1="-94.5022" x2="190.84" y2="2179.31" gradientUnits="userSpaceOnUse">
<stop stop-color="#9399F0"/>
<stop offset="1" stop-color="#563457"/>
</linearGradient>
<linearGradient id="paint1_linear_1436_214" x1="74.0705" y1="242.834" x2="408.16" y2="266.99" gradientUnits="userSpaceOnUse">
<stop offset="0.384615" stop-color="#2C192C"/>
<stop offset="1" stop-color="#9399F0" stop-opacity="0.7"/>
</linearGradient>
<linearGradient id="paint2_linear_1436_214" x1="57.3712" y1="776.879" x2="230.094" y2="1108.03" gradientUnits="userSpaceOnUse">
<stop stop-color="#563457" stop-opacity="0.3"/>
<stop offset="0.961538" stop-color="#9399F0" stop-opacity="0.3"/>
</linearGradient>
</defs>
</svg>
