<svg width="380" height="2796" viewBox="0 0 380 2796" fill="none" xmlns="http://www.w3.org/2000/svg">
<path d="M380 2796L379.994 64.9732C379.994 64.9732 362.622 -4.05859 197.503 40.4621C32.3834 84.9826 0 31.89 0 31.89L0.00877745 2796C0.00877745 2796 180.67 2796 187.159 2796C193.649 2796 380 2796 380 2796Z" fill="url(#paint0_linear_1436_214)"/>
<path d="M380 2796L379.998 43.4983C379.998 43.4983 345.107 -9.66845 194.451 53.4146C43.7957 116.498 0 0 0 0V2796C0 2796 180.665 2796 187.155 2796C193.644 2796 337.6 2796 380 2796Z" fill="url(#paint1_linear_1436_214)" fill-opacity="0.5"/>
<path d="M380 2795.72V20.2213C380 20.2213 309.577 -2.54117 197.503 61.5197C85.4285 125.58 0 17.4493 0 17.4493L0.00882803 2795.72C0.00882803 2795.72 33.5449 2795.1 187.159 2795.72C340.774 2796.35 360.12 2795.72 380 2795.72Z" fill="url(#paint2_linear_1436_214)"/>
<defs>
<linearGradient id="paint0_linear_1436_214" x1="190" y1="-66.944" x2="190" y2="1543.79" gradientUnits="userSpaceOnUse">
<stop stop-color="#9399F0"/>
<stop offset="1" stop-color="#563457"/>
</linearGradient>
<linearGradient id="paint1_linear_1436_214" x1="73.2306" y1="172.02" x2="405.604" y2="205.945" gradientUnits="userSpaceOnUse">
<stop offset="0.384615" stop-color="#2C192C"/>
<stop offset="1" stop-color="#9399F0" stop-opacity="0.7"/>
</linearGradient>
<linearGradient id="paint2_linear_1436_214" x1="56.5313" y1="550.33" x2="153.542" y2="812.888" gradientUnits="userSpaceOnUse">
<stop stop-color="#563457" stop-opacity="0.3"/>
<stop offset="0.961538" stop-color="#9399F0" stop-opacity="0.3"/>
</linearGradient>
</defs>
</svg>
