<svg width="380" height="1506" viewBox="0 0 380 1506" fill="none" xmlns="http://www.w3.org/2000/svg">
<g clip-path="url(#clip0_2177_150)">
<path d="M380 1434.68V74.3326C380 74.3326 371.707 -20.8842 201.667 55.9957C31.6266 132.876 0 48.0645 0 48.0645L0.00099047 1444.73C0.00099047 1444.73 43.9991 1549.8 197.499 1457.03C350.999 1364.25 380 1434.68 380 1434.68Z" fill="url(#paint0_linear_2177_150)"/>
<path d="M380 1477.15V32.3697C380 32.3697 342.676 -14.5349 195.292 75.5945C47.9087 165.724 0 33.5339 0 33.5339L0.00097555 1421.26C0.00097555 1421.26 26.0107 1577.75 203.006 1465.42C380.001 1353.07 380 1477.15 380 1477.15Z" fill="url(#paint1_linear_2177_150)" fill-opacity="0.5"/>
<path d="M379.998 1463.18V1.8791C379.998 1.8791 318.463 -19.5639 197.5 82.4213C76.5368 184.405 0 63.1546 0 63.1546L9.84967e-06 1401.7C9.84967e-06 1401.7 35.4986 1535.83 186.505 1438.58C337.512 1341.33 379.998 1463.18 379.998 1463.18Z" fill="url(#paint2_linear_2177_150)"/>
</g>
<defs>
<linearGradient id="paint0_linear_2177_150" x1="257.128" y1="1431.81" x2="84.2524" y2="185.215" gradientUnits="userSpaceOnUse">
<stop stop-color="#563457"/>
<stop offset="1" stop-color="#9399F0"/>
</linearGradient>
<linearGradient id="paint1_linear_2177_150" x1="292.827" y1="125.132" x2="-179.13" y2="274.542" gradientUnits="userSpaceOnUse">
<stop offset="0.384615" stop-color="#2C192C"/>
<stop offset="1" stop-color="#9399F0" stop-opacity="0.4"/>
</linearGradient>
<linearGradient id="paint2_linear_2177_150" x1="35.9677" y1="454.362" x2="238.752" y2="474.365" gradientUnits="userSpaceOnUse">
<stop offset="0.0384616" stop-color="#9399F0" stop-opacity="0.6"/>
<stop offset="1" stop-color="#563457" stop-opacity="0.4"/>
</linearGradient>
<clipPath id="clip0_2177_150">
<rect width="380" height="1506" fill="white"/>
</clipPath>
</defs>
</svg>
