<svg width="380" height="1361" viewBox="0 0 380 1361" fill="none" xmlns="http://www.w3.org/2000/svg">
<path d="M380 1296.54V67.1754C380 67.1754 371.707 -18.8739 201.667 50.6039C31.6266 120.082 0 43.4363 0 43.4363L0.00099047 1305.63C0.00099047 1305.63 43.9991 1400.59 197.499 1316.74C350.999 1232.9 380 1296.54 380 1296.54Z" fill="url(#paint0_linear_2242_130)"/>
<path d="M380 1334.93V29.2527C380 29.2527 342.676 -13.1359 195.292 68.3158C47.9087 149.767 0 30.3048 0 30.3048L0.00097555 1284.42C0.00097555 1284.42 26.0107 1425.84 203.006 1324.32C380.001 1222.8 380 1334.93 380 1334.93Z" fill="url(#paint1_linear_2242_130)" fill-opacity="0.5"/>
<path d="M379.998 1322.3V1.69818C379.998 1.69818 318.463 -17.6802 197.5 74.4856C76.5368 166.651 0 57.074 0 57.074L9.84967e-06 1266.74C9.84967e-06 1266.74 35.4986 1387.96 186.505 1300.08C337.512 1212.19 379.998 1322.3 379.998 1322.3Z" fill="url(#paint2_linear_2242_130)"/>
<defs>
<linearGradient id="paint0_linear_2242_130" x1="257.128" y1="1293.95" x2="115.449" y2="163.472" gradientUnits="userSpaceOnUse">
<stop stop-color="#563457"/>
<stop offset="1" stop-color="#9399F0"/>
</linearGradient>
<linearGradient id="paint1_linear_2242_130" x1="292.827" y1="113.084" x2="-169.675" y2="275.099" gradientUnits="userSpaceOnUse">
<stop offset="0.384615" stop-color="#2C192C"/>
<stop offset="1" stop-color="#9399F0" stop-opacity="0.4"/>
</linearGradient>
<linearGradient id="paint2_linear_2242_130" x1="35.9677" y1="410.615" x2="238.314" y2="432.702" gradientUnits="userSpaceOnUse">
<stop offset="0.0384616" stop-color="#9399F0" stop-opacity="0.6"/>
<stop offset="1" stop-color="#563457" stop-opacity="0.4"/>
</linearGradient>
</defs>
</svg>
