<svg width="380" height="1079" viewBox="0 0 380 1079" fill="none" xmlns="http://www.w3.org/2000/svg">
<path d="M0.0107193 23L0.00976563 791.247L197.009 791.247L380.008 791.247L380.008 71.5C380.008 71.5 353.01 -4.519 176.51 61.4905C0.0105859 127.5 0.0107193 23 0.0107193 23Z" fill="url(#paint0_linear_962_217)"/>
<path d="M0.000211078 0L0.00586203 791.247L197.006 791.247L380.006 791.247L380.006 52C380.006 52 343.51 -41 176.507 61.8966C9.50374 164.793 0.000211078 0 0.000211078 0Z" fill="url(#paint1_linear_962_217)"/>
<path d="M380.007 1063L380.008 697.5L183.009 697.5L0.0098877 697.5L0.00989797 1063C0.00989797 1063 37.0078 987.002 200.008 1030C363.008 1073 380.007 1063 380.007 1063Z" fill="url(#paint2_linear_962_217)"/>
<path d="M380.008 1029L380.008 788.501L183.009 788.501L0.00970459 788.501L0.00967792 1078.5C0.00967792 1078.5 31.0094 1002.5 194.51 1051C358.01 1099.5 380.008 1029 380.008 1029Z" fill="url(#paint3_linear_962_217)"/>
<defs>
<linearGradient id="paint0_linear_962_217" x1="210.51" y1="-149.604" x2="380.806" y2="1300.71" gradientUnits="userSpaceOnUse">
<stop stop-color="#9399F0"/>
<stop offset="0.596154" stop-color="#302024" stop-opacity="0"/>
</linearGradient>
<linearGradient id="paint1_linear_962_217" x1="210.511" y1="-149.08" x2="380.619" y2="1300.45" gradientUnits="userSpaceOnUse">
<stop stop-color="#9399F0"/>
<stop offset="0.596154" stop-color="#302024" stop-opacity="0"/>
</linearGradient>
<linearGradient id="paint2_linear_962_217" x1="169.508" y1="1063.04" x2="143.501" y2="492.98" gradientUnits="userSpaceOnUse">
<stop stop-color="#9399F0"/>
<stop offset="0.596154" stop-color="#302024" stop-opacity="0"/>
</linearGradient>
<linearGradient id="paint3_linear_962_217" x1="169.507" y1="1154.04" x2="143.501" y2="583.981" gradientUnits="userSpaceOnUse">
<stop stop-color="#9399F0"/>
<stop offset="0.596154" stop-color="#302024" stop-opacity="0"/>
</linearGradient>
</defs>
</svg>
