<svg width="390" height="2192" viewBox="0 0 390 2192" fill="none" xmlns="http://www.w3.org/2000/svg">
<path d="M390 2164.39V34.9707C390 34.9707 353.001 -9.80822 205.314 47.6598C57.6263 105.128 0.00782713 39.6083 0.00782713 39.6083L0 2188.14C0 2188.14 22.0147 2102.28 188.004 2164.39C353.993 2226.51 390 2164.39 390 2164.39Z" fill="url(#paint0_linear_1739_132)"/>
<path d="M390.008 2110.94V1.31029C390.008 1.31029 357.508 -14.8968 194.508 66.689C31.5083 148.275 0.0117188 1.31019 0.0117188 1.31019L0.0078125 2120.12C0.0078125 2120.12 21.0083 2107.1 187 2163.31C352.992 2219.51 390.008 2110.94 390.008 2110.94Z" fill="url(#paint1_linear_1739_132)" fill-opacity="0.5"/>
<path d="M390 2144.95V61.617C390 61.617 346 -15.3534 202.499 56.7353C58.9974 128.823 0 66.2557 0 66.2557L5.69975e-06 2156.83C5.69975e-06 2156.83 59.9984 2108.67 198.5 2144.95C337.001 2181.22 390 2144.95 390 2144.95Z" fill="url(#paint2_linear_1739_132)"/>
<defs>
<linearGradient id="paint0_linear_1739_132" x1="195.001" y1="-129.117" x2="195.001" y2="1351.12" gradientUnits="userSpaceOnUse">
<stop stop-color="#9399F0"/>
<stop offset="1" stop-color="#563457"/>
</linearGradient>
<linearGradient id="paint1_linear_1739_132" x1="315.079" y1="112.003" x2="-25.4817" y2="150.725" gradientUnits="userSpaceOnUse">
<stop offset="0.384615" stop-color="#2C192C"/>
<stop offset="1" stop-color="#9399F0" stop-opacity="0.7"/>
</linearGradient>
<linearGradient id="paint2_linear_1739_132" x1="239.722" y1="998.571" x2="473.441" y2="944.799" gradientUnits="userSpaceOnUse">
<stop offset="0.0384615" stop-color="#9399F0" stop-opacity="0.3"/>
<stop offset="1" stop-color="#563457" stop-opacity="0.3"/>
</linearGradient>
</defs>
</svg>
