<svg width="390" height="672" viewBox="0 0 390 672" fill="none" xmlns="http://www.w3.org/2000/svg">
<path d="M390 640.173V33.1682C390 33.1682 381.488 -9.31901 206.974 24.986C32.4588 59.2912 0 21.4469 0 21.4469L0.00101654 644.661C0.00101654 644.661 45.1569 691.546 202.696 650.148C360.236 608.75 390 640.173 390 640.173Z" fill="url(#paint0_linear_2242_130)"/>
<path d="M390 659.126V14.4436C390 14.4436 351.694 -6.48596 200.431 33.7312C49.1694 73.9483 0 14.9631 0 14.9631L0.00100122 634.187C0.00100122 634.187 26.6952 704.015 208.348 653.889C390.001 603.762 390 659.126 390 659.126Z" fill="url(#paint1_linear_2242_130)" fill-opacity="0.5"/>
<path d="M389.998 652.891V0.838486C389.998 0.838486 326.844 -8.72969 202.698 36.7776C78.5509 82.2848 0 28.1806 0 28.1806L1.01089e-05 625.459C1.01089e-05 625.459 36.4328 685.311 191.413 641.918C346.394 598.525 389.998 652.891 389.998 652.891Z" fill="url(#paint2_linear_2242_130)"/>
<defs>
<linearGradient id="paint0_linear_2242_130" x1="263.894" y1="638.896" x2="229.835" y2="74.0016" gradientUnits="userSpaceOnUse">
<stop stop-color="#563457"/>
<stop offset="1" stop-color="#9399F0"/>
</linearGradient>
<linearGradient id="paint1_linear_2242_130" x1="300.533" y1="55.8359" x2="-47.7412" y2="309.425" gradientUnits="userSpaceOnUse">
<stop offset="0.384615" stop-color="#2C192C"/>
<stop offset="1" stop-color="#9399F0" stop-opacity="0.4"/>
</linearGradient>
<linearGradient id="paint2_linear_2242_130" x1="36.9142" y1="202.743" x2="236.772" y2="248.088" gradientUnits="userSpaceOnUse">
<stop offset="0.0384616" stop-color="#9399F0" stop-opacity="0.6"/>
<stop offset="1" stop-color="#563457" stop-opacity="0.4"/>
</linearGradient>
</defs>
</svg>
