<svg width="390" height="2439" viewBox="0 0 390 2439" fill="none" xmlns="http://www.w3.org/2000/svg">
<path d="M390 2408.28V38.9112C390 38.9112 353.001 -10.9135 205.314 53.0302C57.6263 116.974 0.00782713 44.0714 0.00782713 44.0714L0 2434.7C0 2434.7 22.0147 2339.17 188.004 2408.28C353.993 2477.4 390 2408.28 390 2408.28Z" fill="url(#paint0_linear_2176_135)"/>
<path d="M390.008 2348.81V1.45793C390.008 1.45793 357.508 -16.5754 194.508 74.2037C31.5083 164.983 0.0117188 1.45782 0.0117188 1.45782L0.0078125 2359.02C0.0078125 2359.02 21.0083 2344.53 187 2407.08C352.992 2469.61 390.008 2348.81 390.008 2348.81Z" fill="url(#paint1_linear_2176_135)" fill-opacity="0.5"/>
<path d="M390 2386.65V68.5602C390 68.5602 346 -17.0834 202.499 63.1284C58.9974 143.339 0 73.7216 0 73.7216L5.69975e-06 2399.87C5.69975e-06 2399.87 59.9984 2346.28 198.5 2386.65C337.001 2427.01 390 2386.65 390 2386.65Z" fill="url(#paint2_linear_2176_135)"/>
<defs>
<linearGradient id="paint0_linear_2176_135" x1="195.001" y1="-143.666" x2="195.001" y2="1503.37" gradientUnits="userSpaceOnUse">
<stop stop-color="#9399F0"/>
<stop offset="1" stop-color="#563457"/>
</linearGradient>
<linearGradient id="paint1_linear_2176_135" x1="315.079" y1="124.624" x2="-26.3195" y2="159.51" gradientUnits="userSpaceOnUse">
<stop offset="0.384615" stop-color="#2C192C"/>
<stop offset="1" stop-color="#9399F0" stop-opacity="0.7"/>
</linearGradient>
<linearGradient id="paint2_linear_2176_135" x1="239.722" y1="1111.09" x2="475.722" y2="1062.29" gradientUnits="userSpaceOnUse">
<stop offset="0.0384615" stop-color="#9399F0" stop-opacity="0.3"/>
<stop offset="1" stop-color="#563457" stop-opacity="0.3"/>
</linearGradient>
</defs>
</svg>
