<svg width="826" height="552" viewBox="0 0 826 552" fill="none" xmlns="http://www.w3.org/2000/svg">
<path d="M825.997 504.421L825.998 2.95781C825.998 2.95781 723.338 -11.3381 418.433 47.3547C113.529 106.047 0.000151467 29.298 0.000151467 29.298L0.000103221 504.421C0.000103221 504.421 101.849 562.511 427.425 511.365C753 460.218 825.997 504.421 825.997 504.421Z" fill="url(#paint0_linear_1780_130)"/>
<path d="M825.998 534.917L825.998 60.1288C825.998 60.1288 708.174 17.4121 405.022 62.7835C101.869 108.155 0.000427246 6.42153e-05 0.000427246 6.42153e-05L-3.93222e-05 520.858C-3.93222e-05 520.858 101.634 562.866 426.779 498.923C751.924 434.98 825.998 534.917 825.998 534.917Z" fill="url(#paint1_linear_1780_130)" fill-opacity="0.5"/>
<path d="M825.999 551.741L826 16.4678C826 16.4678 723.34 -0.633588 418.435 69.5774C113.531 139.788 0.00205628 47.9771 0.00205628 47.9771L0.00207637 547.084C0.00207637 547.084 154.176 567.491 415.8 525.153C677.423 482.814 825.999 551.741 825.999 551.741Z" fill="url(#paint2_linear_1780_130)"/>
<defs>
<linearGradient id="paint0_linear_1780_130" x1="412.998" y1="-13.1268" x2="412.998" y2="282.622" gradientUnits="userSpaceOnUse">
<stop stop-color="#9399F0"/>
<stop offset="1" stop-color="#563457"/>
</linearGradient>
<linearGradient id="paint1_linear_1780_130" x1="667.301" y1="34.8933" x2="369.329" y2="393.943" gradientUnits="userSpaceOnUse">
<stop offset="0.384615" stop-color="#2C192C"/>
<stop offset="1" stop-color="#9399F0" stop-opacity="0.7"/>
</linearGradient>
<linearGradient id="paint2_linear_1780_130" x1="507.744" y1="212.1" x2="582.751" y2="29.1575" gradientUnits="userSpaceOnUse">
<stop offset="0.0384615" stop-color="#9399F0" stop-opacity="0.3"/>
<stop offset="1" stop-color="#563457" stop-opacity="0.3"/>
</linearGradient>
</defs>
</svg>
