<svg width="381" height="949" viewBox="0 0 381 949" fill="none" xmlns="http://www.w3.org/2000/svg">
<path d="M0.000177869 30.2139L0.00474698 687L197.002 687L380 687L380 47.1191C380 47.1191 359.009 -36.5786 186.011 21.5329C13.0135 79.6443 0.000177869 30.2139 0.000177869 30.2139Z" fill="url(#paint0_linear_1712_142)"/>
<path d="M0.000186051 -6.10352e-05L0.00474698 687L197.002 687L380 687L380 17.6828C380 17.6828 361.498 -22.7618 188.5 38.0229C15.5021 98.8077 0.000186051 -6.10352e-05 0.000186051 -6.10352e-05Z" fill="url(#paint1_linear_1712_142)"/>
<path d="M380.021 934.847L380.021 601.097L183.022 601.097L0.0235596 601.097L0.0235698 934.847C0.0235698 934.847 37.0215 865.452 200.021 904.714C363.021 943.976 380.021 934.847 380.021 934.847Z" fill="url(#paint2_linear_1712_142)"/>
<path d="M380.021 903.8L380.021 684.19L183.022 684.19L0.0233765 684.19L0.0233498 949C0.0233498 949 31.023 879.602 194.523 923.889C358.023 968.176 380.021 903.8 380.021 903.8Z" fill="url(#paint3_linear_1712_142)"/>
<defs>
<linearGradient id="paint0_linear_1712_142" x1="210.522" y1="-172.265" x2="352.886" y2="1155.28" gradientUnits="userSpaceOnUse">
<stop stop-color="#9399F0"/>
<stop offset="0.596154" stop-color="#302024" stop-opacity="0"/>
</linearGradient>
<linearGradient id="paint1_linear_1712_142" x1="210.522" y1="-211.794" x2="366.12" y2="1175.34" gradientUnits="userSpaceOnUse">
<stop stop-color="#9399F0"/>
<stop offset="0.596154" stop-color="#302024" stop-opacity="0"/>
</linearGradient>
<linearGradient id="paint2_linear_1712_142" x1="169.521" y1="934.887" x2="147.829" y2="414.162" gradientUnits="userSpaceOnUse">
<stop stop-color="#9399F0"/>
<stop offset="0.596154" stop-color="#302024" stop-opacity="0"/>
</linearGradient>
<linearGradient id="paint3_linear_1712_142" x1="169.521" y1="1017.98" x2="147.829" y2="497.256" gradientUnits="userSpaceOnUse">
<stop stop-color="#9399F0"/>
<stop offset="0.596154" stop-color="#302024" stop-opacity="0"/>
</linearGradient>
</defs>
</svg>
