<svg width="764" height="818" viewBox="0 0 764 818" fill="none" xmlns="http://www.w3.org/2000/svg">
<path d="M764 779.257V40.3744C764 40.3744 747.327 -11.3436 405.457 30.4145C63.586 72.1729 0 26.1066 0 26.1066L0.00199137 784.721C0.00199137 784.721 88.4613 841.792 397.077 791.4C705.693 741.008 764 779.257 764 779.257Z" fill="url(#paint0_linear_1093_179)"/>
<path d="M764 802.329V17.5826C764 17.5826 688.959 -7.8941 392.64 41.0607C96.3217 90.0154 0 18.215 0 18.215L0.00196137 771.973C0.00196137 771.973 52.2953 856.972 408.149 795.955C764.002 734.938 764 802.329 764 802.329Z" fill="url(#paint1_linear_1093_179)" fill-opacity="0.5"/>
<path d="M763.997 794.739V1.02066C763.997 1.02066 640.279 -10.6263 397.08 44.768C153.879 100.162 0 34.3031 0 34.3031L1.9803e-05 761.347C1.9803e-05 761.347 71.3709 834.203 374.974 781.382C678.578 728.562 763.997 794.739 763.997 794.739Z" fill="url(#paint2_linear_1093_179)"/>
<defs>
<linearGradient id="paint0_linear_1093_179" x1="516.963" y1="777.703" x2="491.143" y2="88.547" gradientUnits="userSpaceOnUse">
<stop stop-color="#563457"/>
<stop offset="1" stop-color="#9399F0"/>
</linearGradient>
<linearGradient id="paint1_linear_1093_179" x1="588.736" y1="67.9679" x2="148.82" y2="583.464" gradientUnits="userSpaceOnUse">
<stop offset="0.384615" stop-color="#2C192C"/>
<stop offset="1" stop-color="#9399F0" stop-opacity="0.4"/>
</linearGradient>
<linearGradient id="paint2_linear_1093_179" x1="72.3141" y1="246.791" x2="435.555" y2="379.424" gradientUnits="userSpaceOnUse">
<stop offset="0.0384616" stop-color="#9399F0" stop-opacity="0.6"/>
<stop offset="1" stop-color="#563457" stop-opacity="0.4"/>
</linearGradient>
</defs>
</svg>
