<svg width="764" height="1495" viewBox="0 0 764 1495" fill="none" xmlns="http://www.w3.org/2000/svg">
<path d="M764 1424.19V73.7889C764 73.7889 747.327 -20.7323 405.457 55.5859C63.586 131.905 0 47.7127 0 47.7127L0.00199137 1434.18C0.00199137 1434.18 88.4613 1538.48 397.077 1446.38C705.693 1354.28 764 1424.19 764 1424.19Z" fill="url(#paint0_linear_1136_137)"/>
<path d="M764 1466.36V32.1353C764 32.1353 688.959 -14.4266 392.64 75.0444C96.3217 164.515 0 33.291 0 33.291L0.00196137 1410.88C0.00196137 1410.88 52.2953 1566.22 408.149 1454.71C764.002 1343.19 764 1466.36 764 1466.36Z" fill="url(#paint1_linear_1136_137)" fill-opacity="0.5"/>
<path d="M763.997 1452.49V1.86538C763.997 1.86538 640.279 -19.4209 397.08 81.8191C153.879 183.059 0 62.6933 0 62.6933L1.9803e-05 1391.46C1.9803e-05 1391.46 71.3709 1524.61 374.974 1428.07C678.578 1331.54 763.997 1452.49 763.997 1452.49Z" fill="url(#paint2_linear_1136_137)"/>
<defs>
<linearGradient id="paint0_linear_1136_137" x1="516.963" y1="1421.35" x2="431.003" y2="165.948" gradientUnits="userSpaceOnUse">
<stop stop-color="#563457"/>
<stop offset="1" stop-color="#9399F0"/>
</linearGradient>
<linearGradient id="paint1_linear_1136_137" x1="588.736" y1="124.221" x2="-151.102" y2="598.577" gradientUnits="userSpaceOnUse">
<stop offset="0.384615" stop-color="#2C192C"/>
<stop offset="1" stop-color="#9399F0" stop-opacity="0.4"/>
</linearGradient>
<linearGradient id="paint2_linear_1136_137" x1="72.3141" y1="451.042" x2="468.183" y2="530.132" gradientUnits="userSpaceOnUse">
<stop offset="0.0384616" stop-color="#9399F0" stop-opacity="0.6"/>
<stop offset="1" stop-color="#563457" stop-opacity="0.4"/>
</linearGradient>
</defs>
</svg>
