<svg width="1919" height="1388" viewBox="0 0 1919 1388" fill="none" xmlns="http://www.w3.org/2000/svg">
<path d="M0.000314604 3.88477L0.00255489 1247.97C0.00255489 1247.97 160.794 1247.97 981.99 1247.97L1918 1247.97L1918 3.88473C1918 3.88473 1670.01 -44.1153 945 197.385C219.99 438.885 0.000314604 3.88477 0.000314604 3.88477Z" fill="url(#paint0_linear_1681_115)"/>
<path d="M0.000336582 56.8848L0.00755425 1387.88C0.00755425 1387.88 156.475 1387.88 977.668 1387.88L1918 1387.88L1918 39.8847C1918 39.8847 1769 -76.6153 911.5 157.385C54 391.385 0.000336582 56.8848 0.000336582 56.8848Z" fill="url(#paint1_linear_1681_115)"/>
<path d="M0.0203519 137.385L0.0175781 1310.42C0.0175781 1310.42 156.485 1310.42 977.681 1310.42L1918.02 1310.42L1918.02 53.8847C1918.02 53.8847 1771.5 -7.03985 1019 242.885C266.495 492.809 0.0203519 137.385 0.0203519 137.385Z" fill="url(#paint2_linear_1681_115)"/>
<defs>
<linearGradient id="paint0_linear_1681_115" x1="-2697.01" y1="-196.652" x2="-2740.1" y2="797.402" gradientUnits="userSpaceOnUse">
<stop stop-color="#9399F0"/>
<stop offset="0.837464" stop-color="#302024" stop-opacity="0"/>
</linearGradient>
<linearGradient id="paint1_linear_1681_115" x1="-712.516" y1="144.45" x2="-695.155" y2="661.66" gradientUnits="userSpaceOnUse">
<stop stop-color="#9399F0"/>
<stop offset="0.837464" stop-color="#302024" stop-opacity="0"/>
</linearGradient>
<linearGradient id="paint2_linear_1681_115" x1="-429.002" y1="358.917" x2="-404.964" y2="1416.45" gradientUnits="userSpaceOnUse">
<stop stop-color="#9399F0"/>
<stop offset="0.868922" stop-color="#302024" stop-opacity="0"/>
</linearGradient>
</defs>
</svg>
