<svg width="390" height="2929" viewBox="0 0 390 2929" fill="none" xmlns="http://www.w3.org/2000/svg">
<path d="M390 2886.36V37.7341C390 37.7341 353.001 -10.5827 205.314 51.4257C57.6263 113.434 0.00779787 42.7382 0.00779787 42.7382L0 2847.71C0 2847.71 22.0147 2835.97 188.004 2902.98C353.993 2970.01 390 2886.36 390 2886.36Z" fill="url(#paint0_linear_1709_120)"/>
<path d="M390.008 2866.5V1.41383C390.008 1.41383 357.508 -16.0739 194.508 71.958C31.5083 159.99 0.0117083 1.41371 0.0117083 1.41371L0.0078125 2866.5C0.0078125 2866.5 21.0083 2844.01 187 2904.65C352.992 2965.3 390.008 2866.5 390.008 2866.5Z" fill="url(#paint1_linear_1709_120)" fill-opacity="0.5"/>
<path d="M390 2911.81V66.4855C390 66.4855 346 -16.5664 202.499 61.2181C58.9974 139.002 0 71.4906 0 71.4906L5.69974e-06 2886.66C5.69974e-06 2886.66 53.4974 2858.53 191.999 2897.68C330.5 2936.82 390 2911.81 390 2911.81Z" fill="url(#paint2_linear_1709_120)"/>
<defs>
<linearGradient id="paint0_linear_1709_120" x1="195.001" y1="-139.318" x2="195.001" y2="1457.88" gradientUnits="userSpaceOnUse">
<stop stop-color="#9399F0"/>
<stop offset="1" stop-color="#563457"/>
</linearGradient>
<linearGradient id="paint1_linear_1709_120" x1="315.079" y1="120.852" x2="-26.096" y2="156.803" gradientUnits="userSpaceOnUse">
<stop offset="0.384615" stop-color="#2C192C"/>
<stop offset="1" stop-color="#9399F0" stop-opacity="0.7"/>
</linearGradient>
<linearGradient id="paint2_linear_1709_120" x1="239.722" y1="1077.47" x2="475.11" y2="1027.28" gradientUnits="userSpaceOnUse">
<stop offset="0.0384615" stop-color="#9399F0" stop-opacity="0.3"/>
<stop offset="1" stop-color="#563457" stop-opacity="0.3"/>
</linearGradient>
</defs>
</svg>
