<svg width="390" height="1433" viewBox="0 0 390 1433" fill="none" xmlns="http://www.w3.org/2000/svg">
<path d="M390.008 1412.14L390.008 18.8777C390.008 18.8777 353.008 -4.75412 205.318 25.5743C57.6277 55.9027 0.00805875 21.3252 0.00805875 21.3252L0.000260739 1393.24C0.000260739 1393.24 22.0154 1387.5 188.008 1420.28C354 1453.06 390.008 1412.14 390.008 1412.14Z" fill="url(#paint0_linear_1338_127)"/>
<path d="M390.007 1402.33L390.008 0.691672C390.008 0.691672 357.508 -7.86359 194.508 35.2029C31.5076 78.2695 0.0109254 0.691649 0.0109254 0.691649L0.00690149 1402.33C0.00690149 1402.33 21.0074 1391.33 187 1421C352.992 1450.66 390.007 1402.33 390.007 1402.33Z" fill="url(#paint1_linear_1338_127)" fill-opacity="0.5"/>
<path d="M390.008 1424.32L390.008 32.7548C390.008 32.7548 346.008 -7.86342 202.508 30.1787C59.0076 68.2208 0.0105944 35.2027 0.0105944 35.2027L0.0106001 1412.02C0.0106001 1412.02 53.5076 1398.27 192.008 1417.41C330.508 1436.55 390.008 1424.32 390.008 1424.32Z" fill="url(#paint2_linear_1338_127)"/>
<defs>
<linearGradient id="paint0_linear_1338_127" x1="195.004" y1="-67.7189" x2="195.005" y2="713.47" gradientUnits="userSpaceOnUse">
<stop stop-color="#9399F0"/>
<stop offset="1" stop-color="#563457"/>
</linearGradient>
<linearGradient id="paint1_linear_1338_127" x1="315.078" y1="59.1227" x2="-14.5905" y2="130.13" gradientUnits="userSpaceOnUse">
<stop offset="0.384615" stop-color="#2C192C"/>
<stop offset="1" stop-color="#9399F0" stop-opacity="0.7"/>
</linearGradient>
<linearGradient id="paint2_linear_1338_127" x1="239.73" y1="527.197" x2="446.515" y2="437.044" gradientUnits="userSpaceOnUse">
<stop offset="0.0384615" stop-color="#9399F0" stop-opacity="0.3"/>
<stop offset="1" stop-color="#563457" stop-opacity="0.3"/>
</linearGradient>
</defs>
</svg>
