<svg width="390" height="818" viewBox="0 0 390 818" fill="none" xmlns="http://www.w3.org/2000/svg">
<path d="M390 779.257V40.3744C390 40.3744 381.489 -11.3436 206.974 30.4145C32.4588 72.1729 0 26.1066 0 26.1066L0.00101654 784.721C0.00101654 784.721 45.1569 841.792 202.696 791.4C360.236 741.008 390 779.257 390 779.257Z" fill="url(#paint0_linear_1089_141)"/>
<path d="M390 802.329V17.5826C390 17.5826 351.694 -7.8941 200.431 41.0607C49.1694 90.0154 0 18.215 0 18.215L0.00100122 771.973C0.00100122 771.973 26.6952 856.972 208.348 795.955C390.001 734.938 390 802.329 390 802.329Z" fill="url(#paint1_linear_1089_141)" fill-opacity="0.5"/>
<path d="M389.999 794.739V1.02066C389.999 1.02066 326.844 -10.6263 202.698 44.768C78.551 100.162 0 34.3031 0 34.3031L1.01089e-05 761.347C1.01089e-05 761.347 36.4328 834.203 191.414 781.382C346.394 728.562 389.999 794.739 389.999 794.739Z" fill="url(#paint2_linear_1089_141)"/>
<defs>
<linearGradient id="paint0_linear_1089_141" x1="263.894" y1="777.703" x2="213.516" y2="91.2771" gradientUnits="userSpaceOnUse">
<stop stop-color="#563457"/>
<stop offset="1" stop-color="#9399F0"/>
</linearGradient>
<linearGradient id="paint1_linear_1089_141" x1="300.533" y1="67.9679" x2="-91.9524" y2="302.742" gradientUnits="userSpaceOnUse">
<stop offset="0.384615" stop-color="#2C192C"/>
<stop offset="1" stop-color="#9399F0" stop-opacity="0.4"/>
</linearGradient>
<linearGradient id="paint2_linear_1089_141" x1="36.9143" y1="246.791" x2="240.004" y2="284.645" gradientUnits="userSpaceOnUse">
<stop offset="0.0384616" stop-color="#9399F0" stop-opacity="0.6"/>
<stop offset="1" stop-color="#563457" stop-opacity="0.4"/>
</linearGradient>
</defs>
</svg>
