<svg width="390" height="2031" viewBox="0 0 390 2031" fill="none" xmlns="http://www.w3.org/2000/svg">
<path d="M390 2004.5V32.3874C390 32.3874 353.001 -9.08364 205.314 44.1391C57.6263 97.3618 0.00782713 36.6824 0.00782713 36.6824L0 2026.5C0 2026.5 22.0147 1946.98 188.004 2004.5C353.993 2062.03 390 2004.5 390 2004.5Z" fill="url(#paint0_linear_1673_135)"/>
<path d="M390.008 1955V1.2135C390.008 1.2135 357.508 -13.7964 194.508 61.7626C31.5083 137.322 0.0117188 1.2134 0.0117188 1.2134L0.0078125 1963.5C0.0078125 1963.5 21.0083 1951.45 187 2003.5C352.992 2055.55 390.008 1955 390.008 1955Z" fill="url(#paint1_linear_1673_135)" fill-opacity="0.5"/>
<path d="M390 1986.5V57.0653C390 57.0653 346 -14.2192 202.499 52.5442C58.9974 119.307 0 61.3613 0 61.3613L5.69975e-06 1997.5C5.69975e-06 1997.5 59.9984 1952.9 198.5 1986.5C337.001 2020.09 390 1986.5 390 1986.5Z" fill="url(#paint2_linear_1673_135)"/>
<defs>
<linearGradient id="paint0_linear_1673_135" x1="195.001" y1="-119.579" x2="195.001" y2="1251.31" gradientUnits="userSpaceOnUse">
<stop stop-color="#9399F0"/>
<stop offset="1" stop-color="#563457"/>
</linearGradient>
<linearGradient id="paint1_linear_1673_135" x1="315.079" y1="103.729" x2="-24.7622" y2="145.451" gradientUnits="userSpaceOnUse">
<stop offset="0.384615" stop-color="#2C192C"/>
<stop offset="1" stop-color="#9399F0" stop-opacity="0.7"/>
</linearGradient>
<linearGradient id="paint2_linear_1673_135" x1="239.722" y1="924.805" x2="471.508" y2="867.224" gradientUnits="userSpaceOnUse">
<stop offset="0.0384615" stop-color="#9399F0" stop-opacity="0.3"/>
<stop offset="1" stop-color="#563457" stop-opacity="0.3"/>
</linearGradient>
</defs>
</svg>
