<svg width="984" height="899" viewBox="0 0 984 899" fill="none" xmlns="http://www.w3.org/2000/svg">
<circle cx="449.5" cy="449.5" r="449.5" fill="url(#paint0_linear_2160_115)"/>
<g filter="url(#filter0_d_2160_115)">
<path d="M421.5 475C431.833 472 442.667 467 454 460C465.333 452.667 472.5 449 475.5 449C478.5 449 480 451 480 455C480 458.667 477.667 462.167 473 465.5C456 477.5 438.333 486.667 420 493C413 525.333 397.333 549.5 373 565.5C348.667 581.5 320.833 589.5 289.5 589.5C269.5 589.5 251.833 586 236.5 579C221.5 572 210 563 202 552C186 530.333 178 507.5 178 483.5C178 452.5 182.667 424.5 192 399.5C201.667 374.167 214.167 354 229.5 339C244.833 323.667 261.333 312 279 304C297 296 315.167 292 333.5 292C351.833 292 368.667 298 384 310C399.333 321.667 407 335.167 407 350.5C407 355.5 405 359.667 401 363C397.333 366.333 392.833 368 387.5 368C379.833 368 374.5 362.667 371.5 352C364.167 326.333 346.667 313.5 319 313.5C295.667 313.5 273 328 251 357C229.333 386 218.5 420.333 218.5 460C218.5 488 226.833 512.333 243.5 533C260.5 553.667 281.667 564 307 564C327.333 564 344.667 558.167 359 546.5C373.333 534.833 382.5 519.833 386.5 501.5C378.167 503.167 368 504 356 504C344 504 333.5 501.167 324.5 495.5C315.833 489.833 311.5 482.167 311.5 472.5C311.5 462.5 316.5 454 326.5 447C336.833 440 349.833 436.5 365.5 436.5C381.167 436.5 394.333 439.667 405 446C416 452.333 421.5 462 421.5 475ZM364 453.5C349 453.5 341.5 456.833 341.5 463.5C341.5 468.5 344.5 472.667 350.5 476C356.5 479.333 362.667 481 369 481C375.667 481 382.333 480.667 389 480C388.667 472 386 465.667 381 461C376 456 370.333 453.5 364 453.5ZM553.891 404.5C558.557 368.5 569.391 340.833 586.391 321.5C603.724 301.833 626.391 292 654.391 292C682.391 292 696.391 301.667 696.391 321C696.391 334 693.224 346 686.891 357C680.891 367.667 672.724 376.667 662.391 384C642.057 397.667 618.224 407.5 590.891 413.5C584.224 470.833 574.391 511.833 561.391 536.5C592.057 546.833 612.724 553.5 623.391 556.5C634.057 559.167 645.224 560.5 656.891 560.5C668.891 560.5 677.057 555.667 681.391 546C685.724 536.333 688.891 531.5 690.891 531.5C694.891 531.5 696.891 534 696.891 539C696.891 554.667 691.057 568 679.391 579C667.724 590 655.057 595.5 641.391 595.5C627.391 595.5 614.724 593.167 603.391 588.5C592.057 583.833 584.891 580.833 581.891 579.5C578.891 578.167 572.724 575.333 563.391 571C554.391 566.667 548.057 563.667 544.391 562C531.724 575.333 514.724 582 493.391 582C484.724 582 477.057 578.833 470.391 572.5C463.724 566.167 460.391 558.667 460.391 550C460.391 531 471.224 521.5 492.891 521.5C502.224 521.5 515.224 523.667 531.891 528C538.224 508 544.891 471.667 551.891 419C548.224 419.333 543.224 419.5 536.891 419.5C530.891 419.5 527.891 418.5 527.891 416.5C527.891 410.167 536.557 406.167 553.891 404.5ZM592.391 399C613.724 394.333 631.224 386.5 644.891 375.5C658.891 364.167 665.891 349.5 665.891 331.5C665.891 313.5 659.724 304.5 647.391 304.5C620.391 304.5 602.057 336 592.391 399ZM520.391 551.5C501.057 543.167 489.057 539 484.391 539C480.057 539 477.891 541.333 477.891 546C477.891 550.667 479.891 554.667 483.891 558C488.224 561.333 493.724 563 500.391 563C507.057 563 513.724 559.167 520.391 551.5Z" fill="white"/>
</g>
<defs>
<filter id="filter0_d_2160_115" x="178" y="292" width="518.891" height="303.5" filterUnits="userSpaceOnUse" color-interpolation-filters="sRGB">
<feFlood flood-opacity="0" result="BackgroundImageFix"/>
<feColorMatrix in="SourceAlpha" type="matrix" values="0 0 0 0 0 0 0 0 0 0 0 0 0 0 0 0 0 0 127 0" result="hardAlpha"/>
<feOffset/>
<feComposite in2="hardAlpha" operator="out"/>
<feColorMatrix type="matrix" values="0 0 0 0 0 0 0 0 0 0 0 0 0 0 0 0 0 0 0.25 0"/>
<feBlend mode="normal" in2="BackgroundImageFix" result="effect1_dropShadow_2160_115"/>
<feBlend mode="normal" in="SourceGraphic" in2="effect1_dropShadow_2160_115" result="shape"/>
</filter>
<linearGradient id="paint0_linear_2160_115" x1="152" y1="221.5" x2="499" y2="617" gradientUnits="userSpaceOnUse">
<stop stop-color="#9399F0"/>
<stop offset="1" stop-color="#563457"/>
</linearGradient>
</defs>
</svg>
