<svg width="1919" height="2351" viewBox="0 0 1919 2351" fill="none" xmlns="http://www.w3.org/2000/svg">
<path d="M1918.04 96.3372L1918.04 2337.67C1918.04 2337.67 1779.5 2400.5 1046.5 2246C313.5 2091.5 0.035321 2268.88 0.035321 2268.88L0.0353777 64.2863C0.0353777 64.2863 214.031 -55.7677 995.036 87.8337C1776.04 231.435 1918.04 96.3372 1918.04 96.3372Z" fill="url(#paint0_linear_1344_87)"/>
<path d="M1918.04 67.887L1918.04 2283.64C1918.04 2283.64 1724 2401.29 952.5 2197C181 1992.71 0.00109863 2339.57 0.00109863 2339.57L0.000844777 132.97C0.000844777 132.97 237.038 -101.754 1015.54 52.5155C1794.04 206.785 1918.04 67.887 1918.04 67.887Z" fill="url(#paint1_linear_1344_87)" fill-opacity="0.5"/>
<path d="M1918.04 154.883L1918.04 2317.34C1918.04 2317.34 1732.5 2398 1024 2168.5C315.5 1939 0.039006 2226.84 0.039006 2226.84L0.0390039 96.3415C0.0390039 96.3415 137.538 -27.6917 969.538 129.251C1801.54 286.194 1918.04 154.883 1918.04 154.883Z" fill="url(#paint2_linear_1344_87)"/>
<defs>
<linearGradient id="paint0_linear_1344_87" x1="959.04" y1="2467.13" x2="959.04" y2="1085.1" gradientUnits="userSpaceOnUse">
<stop stop-color="#9399F0"/>
<stop offset="1" stop-color="#563457"/>
</linearGradient>
<linearGradient id="paint1_linear_1344_87" x1="1549.54" y1="2242.93" x2="300.644" y2="1495.24" gradientUnits="userSpaceOnUse">
<stop offset="0.384615" stop-color="#2C192C"/>
<stop offset="1" stop-color="#9399F0" stop-opacity="0.7"/>
</linearGradient>
<linearGradient id="paint2_linear_1344_87" x1="1179.04" y1="1473.73" x2="1628.83" y2="2058.58" gradientUnits="userSpaceOnUse">
<stop offset="0.0384615" stop-color="#9399F0" stop-opacity="0.3"/>
<stop offset="1" stop-color="#563457" stop-opacity="0.3"/>
</linearGradient>
</defs>
</svg>
