<svg width="1919" height="1398" viewBox="0 0 1919 1398" fill="none" xmlns="http://www.w3.org/2000/svg">
<path d="M0.0501661 8.74268L0.0517532 1343.65C0.0517532 1343.65 160.844 1343.65 982.041 1343.65L1918.05 1343.65L1918.05 133.152C1918.05 133.152 1743.01 -53.6468 860.518 278C40.969 585.99 1.5096 82.183 0.0501661 8.74268L0.0501557 5.45128e-09C0.0501557 5.45128e-09 -0.0619312 3.10181 0.0501661 8.74268Z" fill="url(#paint0_linear_1679_153)"/>
<path d="M0.0393972 183.232L0.0390625 1344.65C0.0390625 1344.65 156.507 1344.65 977.703 1344.65L1918.04 1344.65L1918.04 183.232C1918.04 183.232 1728.05 87.1259 916.538 274.956C105.03 462.786 0.0393972 183.232 0.0393972 183.232Z" fill="url(#paint1_linear_1679_153)"/>
<path d="M0.0413069 246L0.0683119 1397.65C0.0683119 1397.65 156.534 1397.65 977.725 1397.65L1918.06 1397.65L1918.06 188.648C1918.06 188.648 1684.02 -25.0001 946.037 298C208.057 621 0.0413069 246 0.0413069 246Z" fill="url(#paint2_linear_1679_153)"/>
<defs>
<linearGradient id="paint0_linear_1679_153" x1="-2696.96" y1="-100.976" x2="-2740.04" y2="893.08" gradientUnits="userSpaceOnUse">
<stop stop-color="#9399F0"/>
<stop offset="0.837464" stop-color="#302024" stop-opacity="0"/>
</linearGradient>
<linearGradient id="paint1_linear_1679_153" x1="-712.474" y1="101.213" x2="-753.664" y2="890.46" gradientUnits="userSpaceOnUse">
<stop stop-color="#9399F0"/>
<stop offset="0.837464" stop-color="#302024" stop-opacity="0"/>
</linearGradient>
<linearGradient id="paint2_linear_1679_153" x1="-4386.48" y1="-178" x2="-4271.31" y2="1785.24" gradientUnits="userSpaceOnUse">
<stop stop-color="#9399F0"/>
<stop offset="0.305181" stop-color="#716FA9" stop-opacity="0.651986"/>
<stop offset="0.868922" stop-color="#302024" stop-opacity="0"/>
</linearGradient>
</defs>
</svg>
