<svg width="1918" height="3260" viewBox="0 0 1918 3260" fill="none" xmlns="http://www.w3.org/2000/svg">
<path d="M1918 2978.5L1918.01 17.5576C1918.01 17.5576 1679.62 -66.8542 971.623 279.704C263.623 626.261 0.00376804 173.086 0.00376804 173.086L0.00382661 2978.5C0.00382661 2978.5 236.501 3321.5 992.501 3019.5C1748.5 2717.5 1918 2978.5 1918 2978.5Z" fill="url(#paint0_linear_648_115)"/>
<path d="M1918 3158V354.983C1918 354.983 1644.41 102.796 940.478 370.656C236.547 638.515 0.00222099 0.00012207 0.00222099 0.00012207L0.00217007 3075C0.00217007 3075 236.001 3323 991.001 2945.5C1746 2568 1918 3158 1918 3158Z" fill="url(#paint1_linear_648_115)" fill-opacity="0.5"/>
<path d="M1918 3258L1918 97.3354C1918 97.3354 1679.62 -3.64453 971.621 410.935C263.621 825.514 0.00195312 283.39 0.00195312 283.39L0.0019604 3230.5C0.0019604 3230.5 358.001 3351 965.501 3101C1573 2851 1918 3258 1918 3258Z" fill="url(#paint2_linear_648_115)"/>
<defs>
<linearGradient id="paint0_linear_648_115" x1="959.004" y1="-89.3184" x2="959.004" y2="1726.12" gradientUnits="userSpaceOnUse">
<stop stop-color="#9399F0"/>
<stop offset="1" stop-color="#563457"/>
</linearGradient>
<linearGradient id="paint1_linear_648_115" x1="368.503" y1="212.623" x2="1769.61" y2="855.98" gradientUnits="userSpaceOnUse">
<stop offset="0.384615" stop-color="#2C192C"/>
<stop offset="1" stop-color="#9399F0" stop-opacity="0.7"/>
</linearGradient>
<linearGradient id="paint2_linear_648_115" x1="1179" y1="1252.5" x2="1809.36" y2="647.894" gradientUnits="userSpaceOnUse">
<stop offset="0.0384615" stop-color="#9399F0" stop-opacity="0.3"/>
<stop offset="1" stop-color="#563457" stop-opacity="0.3"/>
</linearGradient>
</defs>
</svg>
