<svg width="1917" height="3335" viewBox="0 0 1917 3335" fill="none" xmlns="http://www.w3.org/2000/svg">
<path d="M1916.99 3064.59L1917 20.1722C1917 20.1722 1696.95 -84.6056 945.813 183.431C194.681 451.467 0.0213776 109.077 0.0213776 109.077L0.0213394 3064.59C0.0213394 3064.59 245.462 3443.9 1009.29 3149.25C1773.12 2854.59 1916.99 3064.59 1916.99 3064.59Z" fill="url(#paint0_linear_1655_117)"/>
<path d="M1916.97 3294.16V288.872C1916.97 288.872 1730.78 28.1815 924.633 317.328C118.489 606.475 0 46.54 0 46.54L0.000244141 3208.81C0.000244141 3208.81 204.181 3415.33 999.746 3130.77C1795.31 2846.22 1916.97 3294.16 1916.97 3294.16Z" fill="url(#paint1_linear_1655_117)" fill-opacity="0.5"/>
<path d="M1916.97 3294.16L1917 109.079C1917 109.079 1712.82 -13.1247 965.919 300.369C219.018 613.862 0.0262947 300.369 0.0262947 300.369V3255.61C0.0262947 3255.61 235.919 3462.14 981.762 3206.04C1727.6 2949.94 1916.97 3294.16 1916.97 3294.16Z" fill="url(#paint2_linear_1655_117)"/>
<defs>
<linearGradient id="paint0_linear_1655_117" x1="958.5" y1="-79.2119" x2="958.5" y2="1756.46" gradientUnits="userSpaceOnUse">
<stop stop-color="#9399F0"/>
<stop offset="1" stop-color="#563457"/>
</linearGradient>
<linearGradient id="paint1_linear_1655_117" x1="368.308" y1="217.501" x2="1779.83" y2="850.772" gradientUnits="userSpaceOnUse">
<stop offset="0.384615" stop-color="#2C192C"/>
<stop offset="1" stop-color="#9399F0" stop-opacity="0.7"/>
</linearGradient>
<linearGradient id="paint2_linear_1655_117" x1="989.865" y1="1724.13" x2="1636.94" y2="1120.8" gradientUnits="userSpaceOnUse">
<stop offset="0.0384615" stop-color="#9399F0" stop-opacity="0.3"/>
<stop offset="1" stop-color="#563457" stop-opacity="0.3"/>
</linearGradient>
</defs>
</svg>
