<svg width="3911" height="7062" viewBox="0 0 3911 7062" fill="none" xmlns="http://www.w3.org/2000/svg">
<path d="M3911 4137L3911 39.4999C3911 39.4999 3674.86 -86.5566 2957.5 113C2240.15 312.557 1989 171.5 1989 171.5L1989 4137L3037.17 4137L3911 4137Z" fill="url(#paint0_linear_990_140)"/>
<path d="M3911 4137L3911 207.5C3911 207.5 3735.56 -41.2871 2932 122C2128.44 285.287 1989.01 100 1989.01 100L1989.01 4137L2983.57 4137L3911 4137Z" fill="url(#paint1_linear_990_140)" fill-opacity="0.5"/>
<path d="M3911 4137L3911 119C3911 119 3727.85 -64.0664 2942.5 152.441C2157.16 368.949 1989.01 229.999 1989.01 229.999L1989.01 4137L2976.06 4137L3911 4137Z" fill="url(#paint2_linear_990_140)"/>
<defs>
<linearGradient id="paint0_linear_990_140" x1="2950" y1="30.067" x2="2950" y2="805.47" gradientUnits="userSpaceOnUse">
<stop stop-color="#9399F0"/>
<stop offset="1" stop-color="#563457"/>
</linearGradient>
<linearGradient id="paint1_linear_990_140" x1="3541.73" y1="168.857" x2="2769.97" y2="1015.27" gradientUnits="userSpaceOnUse">
<stop offset="0.384615" stop-color="#2C192C"/>
<stop offset="1" stop-color="#9399F0" stop-opacity="0.7"/>
</linearGradient>
<linearGradient id="paint2_linear_990_140" x1="4783.31" y1="1512.77" x2="3487.98" y2="-173.408" gradientUnits="userSpaceOnUse">
<stop offset="0.0384615" stop-color="#9399F0" stop-opacity="0.3"/>
<stop offset="1" stop-color="#563457" stop-opacity="0.3"/>
</linearGradient>
</defs>
</svg>
