<svg width="1922" height="4137" viewBox="0 0 1922 4137" fill="none" xmlns="http://www.w3.org/2000/svg">
<path d="M1922 4136.77L1922 39.2748C1922 39.2748 1685.86 -86.7817 968.502 112.775C251.145 312.332 0.00485324 171.275 0.00485324 171.275L0.00481614 4136.77L1048.17 4136.77L1922 4136.77Z" fill="url(#paint0_linear_994_157)"/>
<path d="M1922 4136.77L1922 207.275C1922 207.275 1746.56 -41.5122 943.002 121.775C139.44 285.062 0.00907106 99.7749 0.00907106 99.7749L0.00886822 4136.77L994.572 4136.77L1922 4136.77Z" fill="url(#paint1_linear_994_157)" fill-opacity="0.5"/>
<path d="M1922 4136.77L1922 118.775C1922 118.775 1738.85 -64.2915 953.505 152.216C168.159 368.724 0.0138785 229.774 0.0138785 229.774L0.0138883 4136.77L987.061 4136.77L1922 4136.77Z" fill="url(#paint2_linear_994_157)"/>
<defs>
<linearGradient id="paint0_linear_994_157" x1="960.999" y1="29.8419" x2="960.999" y2="805.245" gradientUnits="userSpaceOnUse">
<stop stop-color="#9399F0"/>
<stop offset="1" stop-color="#563457"/>
</linearGradient>
<linearGradient id="paint1_linear_994_157" x1="1552.73" y1="168.632" x2="780.968" y2="1015.05" gradientUnits="userSpaceOnUse">
<stop offset="0.384615" stop-color="#2C192C"/>
<stop offset="1" stop-color="#9399F0" stop-opacity="0.7"/>
</linearGradient>
<linearGradient id="paint2_linear_994_157" x1="2794.31" y1="1512.55" x2="1498.98" y2="-173.633" gradientUnits="userSpaceOnUse">
<stop offset="0.0384615" stop-color="#9399F0" stop-opacity="0.3"/>
<stop offset="1" stop-color="#563457" stop-opacity="0.3"/>
</linearGradient>
</defs>
</svg>
