<svg width="1918" height="1245" viewBox="0 0 1918 1245" fill="none" xmlns="http://www.w3.org/2000/svg">
<path d="M0.00354888 12.4363L0 1182C0 1182 156.467 1182 977.663 1182L1918 1182L1918 12.4362C1918 12.4362 1648.49 -67.9749 863.494 180.143C78.4941 428.26 0.00354888 12.4363 0.00354888 12.4363Z" fill="url(#paint0_linear_1152_125)"/>
<path d="M0.000334706 83.584L0 1245C0 1245 156.468 1245 977.664 1245L1918 1245L1918 83.584C1918 83.584 1728.01 -12.5225 916.499 175.308C104.991 363.138 0.000334706 83.584 0.000334706 83.584Z" fill="url(#paint1_linear_1152_125)"/>
<defs>
<linearGradient id="paint0_linear_1152_125" x1="-2697" y1="-285.625" x2="-2740.09" y2="708.43" gradientUnits="userSpaceOnUse">
<stop stop-color="#9399F0"/>
<stop offset="0.837464" stop-color="#302024" stop-opacity="0"/>
</linearGradient>
<linearGradient id="paint1_linear_1152_125" x1="-712.513" y1="1.56491" x2="-753.703" y2="790.811" gradientUnits="userSpaceOnUse">
<stop stop-color="#9399F0"/>
<stop offset="0.837464" stop-color="#302024" stop-opacity="0"/>
</linearGradient>
</defs>
</svg>
