<svg width="1919" height="1939" viewBox="0 0 1919 1939" fill="none" xmlns="http://www.w3.org/2000/svg">
<path d="M0.000314604 82.3267L0.00255489 1751.3C0.00255489 1751.3 160.794 1751.3 981.99 1751.3L1918 1751.3L1918 10.6172C1918 10.6172 1635.51 -76.3613 910.5 247.617C185.49 571.596 0.000314604 82.3267 0.000314604 82.3267Z" fill="url(#paint0_linear_1914_123)"/>
<path d="M0.000336582 153.428L0.00755425 1939C0.00755425 1939 156.475 1939 977.668 1939C1798.86 1939 1918 1939 1918 1939L1918 130.622C1918 130.622 1768 -120.3 910.5 193.617C53 507.534 0.000336582 153.428 0.000336582 153.428Z" fill="url(#paint1_linear_1914_123)"/>
<path d="M0.0203519 261.421L0.0175781 1835.08C0.0175781 1835.08 156.485 1835.08 977.681 1835.08C1798.88 1835.08 1918.02 1835.08 1918.02 1835.08L1918.02 149.403C1918.02 149.403 1770.5 -47.1632 1018 288.117C265.497 623.398 0.0203519 261.421 0.0203519 261.421Z" fill="url(#paint2_linear_1914_123)"/>
<defs>
<linearGradient id="paint0_linear_1914_123" x1="-2697.01" y1="-186.699" x2="-2774.44" y2="1144.85" gradientUnits="userSpaceOnUse">
<stop stop-color="#9399F0"/>
<stop offset="0.837464" stop-color="#302024" stop-opacity="0"/>
</linearGradient>
<linearGradient id="paint1_linear_1914_123" x1="-712.519" y1="270.899" x2="-681.302" y2="964.126" gradientUnits="userSpaceOnUse">
<stop stop-color="#9399F0"/>
<stop offset="0.837464" stop-color="#302024" stop-opacity="0"/>
</linearGradient>
<linearGradient id="paint2_linear_1914_123" x1="-429.001" y1="558.613" x2="-385.758" y2="1976.73" gradientUnits="userSpaceOnUse">
<stop stop-color="#9399F0"/>
<stop offset="0.868922" stop-color="#302024" stop-opacity="0"/>
</linearGradient>
</defs>
</svg>
